# xmcd
#
# Track frame offsets: 
#        150
#        13875
#        27827
#        40203
#        56103
#        69754
#        88880
#        107255
#        124056
#        145732
#        166808
#
# Disc length: 2747 seconds
#
# Revision: 2
# Processed by: cddbd v1.5.2PL0 Copyright (c) Steve Scherf et al.
# Submitted via: ExactAudioCopy v0.99pb5
#
DISCID=8a0ab90b
DTITLE=Blues Babies - Aguggamidda!
DYEAR=2007
DGENRE=Ska
TTITLE0=Keep Shakin'
TTITLE1=Riders on the Stormfire
TTITLE2=Bad Moon Risin'
TTITLE3=Das Modell
TTITLE4=Ach Was
TTITLE5=King of Coffee
TTITLE6=Aguggamidda!
TTITLE7=Ubangi Stomp
TTITLE8=HardSka Medley
TTITLE9=Jelly
TTITLE10=King of Coffee - Hot Cappuccino Mix
EXTD=
EXTT0=
EXTT1=
EXTT2=
EXTT3=
EXTT4=
EXTT5=
EXTT6=
EXTT7=
EXTT8=
EXTT9=
EXTT10=
PLAYORDER=
